<svg xmlns="http://www.w3.org/2000/svg" xmlns:xlink="http://www.w3.org/1999/xlink" width="500" zoomAndPan="magnify" viewBox="0 0 375 374.999991" height="500" preserveAspectRatio="xMidYMid meet" version="1.0"><defs><g/><clipPath id="fe957041b8"><path d="M 143 132 L 232 132 L 232 215 L 143 215 Z M 143 132 " clip-rule="nonzero"/></clipPath><clipPath id="8ef4523e32"><path d="M 156.578125 56.796875 L 301.8125 138.210938 L 234.335938 258.589844 L 89.097656 177.171875 Z M 156.578125 56.796875 " clip-rule="nonzero"/></clipPath><clipPath id="d5a2b77af0"><path d="M 156.578125 56.796875 L 301.8125 138.210938 L 234.335938 258.589844 L 89.097656 177.171875 Z M 156.578125 56.796875 " clip-rule="nonzero"/></clipPath><clipPath id="12e2a5c01a"><path d="M 156.578125 56.796875 L 301.8125 138.210938 L 234.335938 258.589844 L 89.097656 177.171875 Z M 156.578125 56.796875 " clip-rule="nonzero"/></clipPath><clipPath id="266427418d"><path d="M 186 94 L 218 94 L 218 128 L 186 128 Z M 186 94 " clip-rule="nonzero"/></clipPath><clipPath id="4c97534ad5"><path d="M 156.578125 56.796875 L 301.8125 138.210938 L 234.335938 258.589844 L 89.097656 177.171875 Z M 156.578125 56.796875 " clip-rule="nonzero"/></clipPath><clipPath id="5b6080eed2"><path d="M 156.578125 56.796875 L 301.8125 138.210938 L 234.335938 258.589844 L 89.097656 177.171875 Z M 156.578125 56.796875 " clip-rule="nonzero"/></clipPath><clipPath id="9992deb04e"><path d="M 156.578125 56.796875 L 301.8125 138.210938 L 234.335938 258.589844 L 89.097656 177.171875 Z M 156.578125 56.796875 " clip-rule="nonzero"/></clipPath><clipPath id="6a7c59667d"><path d="M 153 108 L 177 108 L 177 129 L 153 129 Z M 153 108 " clip-rule="nonzero"/></clipPath><clipPath id="df13896c2c"><path d="M 156.578125 56.796875 L 301.8125 138.210938 L 234.335938 258.589844 L 89.097656 177.171875 Z M 156.578125 56.796875 " clip-rule="nonzero"/></clipPath><clipPath id="59380b1eda"><path d="M 156.578125 56.796875 L 301.8125 138.210938 L 234.335938 258.589844 L 89.097656 177.171875 Z M 156.578125 56.796875 " clip-rule="nonzero"/></clipPath><clipPath id="296b6d8ef4"><path d="M 156.578125 56.796875 L 301.8125 138.210938 L 234.335938 258.589844 L 89.097656 177.171875 Z M 156.578125 56.796875 " clip-rule="nonzero"/></clipPath><clipPath id="609ae704e1"><path d="M 186 95 L 219 95 L 219 128 L 186 128 Z M 186 95 " clip-rule="nonzero"/></clipPath><clipPath id="59f840ca3b"><path d="M 156.578125 56.796875 L 301.8125 138.210938 L 234.335938 258.589844 L 89.097656 177.171875 Z M 156.578125 56.796875 " clip-rule="nonzero"/></clipPath><clipPath id="2d3dc7e3a4"><path d="M 156.578125 56.796875 L 301.8125 138.210938 L 234.335938 258.589844 L 89.097656 177.171875 Z M 156.578125 56.796875 " clip-rule="nonzero"/></clipPath><clipPath id="7d6be25015"><path d="M 156.578125 56.796875 L 301.8125 138.210938 L 234.335938 258.589844 L 89.097656 177.171875 Z M 156.578125 56.796875 " clip-rule="nonzero"/></clipPath><clipPath id="10953d9d02"><path d="M 153 109 L 177 109 L 177 128 L 153 128 Z M 153 109 " clip-rule="nonzero"/></clipPath><clipPath id="59b0e290c9"><path d="M 156.578125 56.796875 L 301.8125 138.210938 L 234.335938 258.589844 L 89.097656 177.171875 Z M 156.578125 56.796875 " clip-rule="nonzero"/></clipPath><clipPath id="0c57ed6c24"><path d="M 156.578125 56.796875 L 301.8125 138.210938 L 234.335938 258.589844 L 89.097656 177.171875 Z M 156.578125 56.796875 " clip-rule="nonzero"/></clipPath><clipPath id="5a576cebf4"><path d="M 156.578125 56.796875 L 301.8125 138.210938 L 234.335938 258.589844 L 89.097656 177.171875 Z M 156.578125 56.796875 " clip-rule="nonzero"/></clipPath><clipPath id="c660b715c0"><path d="M 212 174 L 216 174 L 216 178 L 212 178 Z M 212 174 " clip-rule="nonzero"/></clipPath><clipPath id="580d8cce28"><path d="M 156.578125 56.796875 L 301.8125 138.210938 L 234.335938 258.589844 L 89.097656 177.171875 Z M 156.578125 56.796875 " clip-rule="nonzero"/></clipPath><clipPath id="63b0304158"><path d="M 156.578125 56.796875 L 301.8125 138.210938 L 234.335938 258.589844 L 89.097656 177.171875 Z M 156.578125 56.796875 " clip-rule="nonzero"/></clipPath><clipPath id="fefd1932a9"><path d="M 156.578125 56.796875 L 301.8125 138.210938 L 234.335938 258.589844 L 89.097656 177.171875 Z M 156.578125 56.796875 " clip-rule="nonzero"/></clipPath><clipPath id="6b2c3f2ef2"><path d="M 191 132 L 232 132 L 232 216 L 191 216 Z M 191 132 " clip-rule="nonzero"/></clipPath><clipPath id="a53120a0b4"><path d="M 156.578125 56.796875 L 301.8125 138.210938 L 234.335938 258.589844 L 89.097656 177.171875 Z M 156.578125 56.796875 " clip-rule="nonzero"/></clipPath><clipPath id="1e1aae7e70"><path d="M 156.578125 56.796875 L 301.8125 138.210938 L 234.335938 258.589844 L 89.097656 177.171875 Z M 156.578125 56.796875 " clip-rule="nonzero"/></clipPath><clipPath id="f9b08b281d"><path d="M 156.578125 56.796875 L 301.8125 138.210938 L 234.335938 258.589844 L 89.097656 177.171875 Z M 156.578125 56.796875 " clip-rule="nonzero"/></clipPath><clipPath id="7a5211707f"><path d="M 208 144 L 213 144 L 213 153 L 208 153 Z M 208 144 " clip-rule="nonzero"/></clipPath><clipPath id="9390cb1b91"><path d="M 156.578125 56.796875 L 301.8125 138.210938 L 234.335938 258.589844 L 89.097656 177.171875 Z M 156.578125 56.796875 " clip-rule="nonzero"/></clipPath><clipPath id="a370bc3e74"><path d="M 156.578125 56.796875 L 301.8125 138.210938 L 234.335938 258.589844 L 89.097656 177.171875 Z M 156.578125 56.796875 " clip-rule="nonzero"/></clipPath><clipPath id="f1201bc1ef"><path d="M 156.578125 56.796875 L 301.8125 138.210938 L 234.335938 258.589844 L 89.097656 177.171875 Z M 156.578125 56.796875 " clip-rule="nonzero"/></clipPath><clipPath id="2893c45b36"><path d="M 208 140 L 211 140 L 211 142 L 208 142 Z M 208 140 " clip-rule="nonzero"/></clipPath><clipPath id="547357a291"><path d="M 156.578125 56.796875 L 301.8125 138.210938 L 234.335938 258.589844 L 89.097656 177.171875 Z M 156.578125 56.796875 " clip-rule="nonzero"/></clipPath><clipPath id="97aefd9c57"><path d="M 156.578125 56.796875 L 301.8125 138.210938 L 234.335938 258.589844 L 89.097656 177.171875 Z M 156.578125 56.796875 " clip-rule="nonzero"/></clipPath><clipPath id="8d1bb798fe"><path d="M 156.578125 56.796875 L 301.8125 138.210938 L 234.335938 258.589844 L 89.097656 177.171875 Z M 156.578125 56.796875 " clip-rule="nonzero"/></clipPath><clipPath id="6dd88096ad"><path d="M 199 196 L 204 196 L 204 202 L 199 202 Z M 199 196 " clip-rule="nonzero"/></clipPath><clipPath id="79943554d7"><path d="M 156.578125 56.796875 L 301.8125 138.210938 L 234.335938 258.589844 L 89.097656 177.171875 Z M 156.578125 56.796875 " clip-rule="nonzero"/></clipPath><clipPath id="8d92cb8e15"><path d="M 156.578125 56.796875 L 301.8125 138.210938 L 234.335938 258.589844 L 89.097656 177.171875 Z M 156.578125 56.796875 " clip-rule="nonzero"/></clipPath><clipPath id="cf769f7c7e"><path d="M 156.578125 56.796875 L 301.8125 138.210938 L 234.335938 258.589844 L 89.097656 177.171875 Z M 156.578125 56.796875 " clip-rule="nonzero"/></clipPath><clipPath id="d2caa8e423"><path d="M 199 160 L 204 160 L 204 167 L 199 167 Z M 199 160 " clip-rule="nonzero"/></clipPath><clipPath id="f5f53d7cb3"><path d="M 156.578125 56.796875 L 301.8125 138.210938 L 234.335938 258.589844 L 89.097656 177.171875 Z M 156.578125 56.796875 " clip-rule="nonzero"/></clipPath><clipPath id="4ebe7a94b1"><path d="M 156.578125 56.796875 L 301.8125 138.210938 L 234.335938 258.589844 L 89.097656 177.171875 Z M 156.578125 56.796875 " clip-rule="nonzero"/></clipPath><clipPath id="9b8dfc0416"><path d="M 156.578125 56.796875 L 301.8125 138.210938 L 234.335938 258.589844 L 89.097656 177.171875 Z M 156.578125 56.796875 " clip-rule="nonzero"/></clipPath><clipPath id="47c1c70e88"><path d="M 217 153 L 220 153 L 220 156 L 217 156 Z M 217 153 " clip-rule="nonzero"/></clipPath><clipPath id="6c05673d3f"><path d="M 156.578125 56.796875 L 301.8125 138.210938 L 234.335938 258.589844 L 89.097656 177.171875 Z M 156.578125 56.796875 " clip-rule="nonzero"/></clipPath><clipPath id="485a0b90ce"><path d="M 156.578125 56.796875 L 301.8125 138.210938 L 234.335938 258.589844 L 89.097656 177.171875 Z M 156.578125 56.796875 " clip-rule="nonzero"/></clipPath><clipPath id="81fab08a2e"><path d="M 156.578125 56.796875 L 301.8125 138.210938 L 234.335938 258.589844 L 89.097656 177.171875 Z M 156.578125 56.796875 " clip-rule="nonzero"/></clipPath><clipPath id="61fa431beb"><path d="M 192 137 L 204 137 L 204 141 L 192 141 Z M 192 137 " clip-rule="nonzero"/></clipPath><clipPath id="a596a06c7e"><path d="M 156.578125 56.796875 L 301.8125 138.210938 L 234.335938 258.589844 L 89.097656 177.171875 Z M 156.578125 56.796875 " clip-rule="nonzero"/></clipPath><clipPath id="a8f69c9962"><path d="M 156.578125 56.796875 L 301.8125 138.210938 L 234.335938 258.589844 L 89.097656 177.171875 Z M 156.578125 56.796875 " clip-rule="nonzero"/></clipPath><clipPath id="7f71455007"><path d="M 156.578125 56.796875 L 301.8125 138.210938 L 234.335938 258.589844 L 89.097656 177.171875 Z M 156.578125 56.796875 " clip-rule="nonzero"/></clipPath><clipPath id="5f0ddd446c"><path d="M 185 171 L 191 171 L 191 180 L 185 180 Z M 185 171 " clip-rule="nonzero"/></clipPath><clipPath id="551d6aea54"><path d="M 156.578125 56.796875 L 301.8125 138.210938 L 234.335938 258.589844 L 89.097656 177.171875 Z M 156.578125 56.796875 " clip-rule="nonzero"/></clipPath><clipPath id="dccb8fd9b0"><path d="M 156.578125 56.796875 L 301.8125 138.210938 L 234.335938 258.589844 L 89.097656 177.171875 Z M 156.578125 56.796875 " clip-rule="nonzero"/></clipPath><clipPath id="c89ef8b430"><path d="M 156.578125 56.796875 L 301.8125 138.210938 L 234.335938 258.589844 L 89.097656 177.171875 Z M 156.578125 56.796875 " clip-rule="nonzero"/></clipPath><clipPath id="3ff0055b92"><path d="M 197 178 L 200 178 L 200 181 L 197 181 Z M 197 178 " clip-rule="nonzero"/></clipPath><clipPath id="5614f77e00"><path d="M 156.578125 56.796875 L 301.8125 138.210938 L 234.335938 258.589844 L 89.097656 177.171875 Z M 156.578125 56.796875 " clip-rule="nonzero"/></clipPath><clipPath id="c68b55ac5b"><path d="M 156.578125 56.796875 L 301.8125 138.210938 L 234.335938 258.589844 L 89.097656 177.171875 Z M 156.578125 56.796875 " clip-rule="nonzero"/></clipPath><clipPath id="d6540a00bc"><path d="M 156.578125 56.796875 L 301.8125 138.210938 L 234.335938 258.589844 L 89.097656 177.171875 Z M 156.578125 56.796875 " clip-rule="nonzero"/></clipPath><clipPath id="b1b5bd7daf"><path d="M 186 147 L 192 147 L 192 155 L 186 155 Z M 186 147 " clip-rule="nonzero"/></clipPath><clipPath id="d9505aac92"><path d="M 156.578125 56.796875 L 301.8125 138.210938 L 234.335938 258.589844 L 89.097656 177.171875 Z M 156.578125 56.796875 " clip-rule="nonzero"/></clipPath><clipPath id="beb5ee9e63"><path d="M 156.578125 56.796875 L 301.8125 138.210938 L 234.335938 258.589844 L 89.097656 177.171875 Z M 156.578125 56.796875 " clip-rule="nonzero"/></clipPath><clipPath id="92fa55c2db"><path d="M 156.578125 56.796875 L 301.8125 138.210938 L 234.335938 258.589844 L 89.097656 177.171875 Z M 156.578125 56.796875 " clip-rule="nonzero"/></clipPath><clipPath id="d330644671"><path d="M 193 197 L 196 197 L 196 200 L 193 200 Z M 193 197 " clip-rule="nonzero"/></clipPath><clipPath id="3a985d2b39"><path d="M 156.578125 56.796875 L 301.8125 138.210938 L 234.335938 258.589844 L 89.097656 177.171875 Z M 156.578125 56.796875 " clip-rule="nonzero"/></clipPath><clipPath id="d433c8dfaa"><path d="M 156.578125 56.796875 L 301.8125 138.210938 L 234.335938 258.589844 L 89.097656 177.171875 Z M 156.578125 56.796875 " clip-rule="nonzero"/></clipPath><clipPath id="7fa632adf0"><path d="M 156.578125 56.796875 L 301.8125 138.210938 L 234.335938 258.589844 L 89.097656 177.171875 Z M 156.578125 56.796875 " clip-rule="nonzero"/></clipPath><clipPath id="6d769faba2"><path d="M 158 165 L 162 165 L 162 171 L 158 171 Z M 158 165 " clip-rule="nonzero"/></clipPath><clipPath id="81a70e9abb"><path d="M 156.578125 56.796875 L 301.8125 138.210938 L 234.335938 258.589844 L 89.097656 177.171875 Z M 156.578125 56.796875 " clip-rule="nonzero"/></clipPath><clipPath id="c04769c104"><path d="M 156.578125 56.796875 L 301.8125 138.210938 L 234.335938 258.589844 L 89.097656 177.171875 Z M 156.578125 56.796875 " clip-rule="nonzero"/></clipPath><clipPath id="fda9f8d175"><path d="M 156.578125 56.796875 L 301.8125 138.210938 L 234.335938 258.589844 L 89.097656 177.171875 Z M 156.578125 56.796875 " clip-rule="nonzero"/></clipPath><clipPath id="93f2cfe13f"><path d="M 171 137 L 174 137 L 174 138 L 171 138 Z M 171 137 " clip-rule="nonzero"/></clipPath><clipPath id="67f5a6cecd"><path d="M 156.578125 56.796875 L 301.8125 138.210938 L 234.335938 258.589844 L 89.097656 177.171875 Z M 156.578125 56.796875 " clip-rule="nonzero"/></clipPath><clipPath id="437f64068f"><path d="M 156.578125 56.796875 L 301.8125 138.210938 L 234.335938 258.589844 L 89.097656 177.171875 Z M 156.578125 56.796875 " clip-rule="nonzero"/></clipPath><clipPath id="38318a17eb"><path d="M 156.578125 56.796875 L 301.8125 138.210938 L 234.335938 258.589844 L 89.097656 177.171875 Z M 156.578125 56.796875 " clip-rule="nonzero"/></clipPath><clipPath id="f5c2f22b09"><path d="M 144 135 L 186 135 L 186 214 L 144 214 Z M 144 135 " clip-rule="nonzero"/></clipPath><clipPath id="c3aa67df47"><path d="M 156.578125 56.796875 L 301.8125 138.210938 L 234.335938 258.589844 L 89.097656 177.171875 Z M 156.578125 56.796875 " clip-rule="nonzero"/></clipPath><clipPath id="1b94a66984"><path d="M 156.578125 56.796875 L 301.8125 138.210938 L 234.335938 258.589844 L 89.097656 177.171875 Z M 156.578125 56.796875 " clip-rule="nonzero"/></clipPath><clipPath id="e97c955d0e"><path d="M 156.578125 56.796875 L 301.8125 138.210938 L 234.335938 258.589844 L 89.097656 177.171875 Z M 156.578125 56.796875 " clip-rule="nonzero"/></clipPath><clipPath id="d873bfff60"><path d="M 166 141 L 180 141 L 180 145 L 166 145 Z M 166 141 " clip-rule="nonzero"/></clipPath><clipPath id="1760f415e3"><path d="M 156.578125 56.796875 L 301.8125 138.210938 L 234.335938 258.589844 L 89.097656 177.171875 Z M 156.578125 56.796875 " clip-rule="nonzero"/></clipPath><clipPath id="6269b5ed1d"><path d="M 156.578125 56.796875 L 301.8125 138.210938 L 234.335938 258.589844 L 89.097656 177.171875 Z M 156.578125 56.796875 " clip-rule="nonzero"/></clipPath><clipPath id="3825ad7484"><path d="M 156.578125 56.796875 L 301.8125 138.210938 L 234.335938 258.589844 L 89.097656 177.171875 Z M 156.578125 56.796875 " clip-rule="nonzero"/></clipPath><clipPath id="be77198b37"><path d="M 150 106 L 179 106 L 179 131 L 150 131 Z M 150 106 " clip-rule="nonzero"/></clipPath><clipPath id="bb6ef98728"><path d="M 156.578125 56.796875 L 301.8125 138.210938 L 234.335938 258.589844 L 89.097656 177.171875 Z M 156.578125 56.796875 " clip-rule="nonzero"/></clipPath><clipPath id="b609b03432"><path d="M 156.578125 56.796875 L 301.8125 138.210938 L 234.335938 258.589844 L 89.097656 177.171875 Z M 156.578125 56.796875 " clip-rule="nonzero"/></clipPath><clipPath id="934a2f38b5"><path d="M 156.578125 56.796875 L 301.8125 138.210938 L 234.335938 258.589844 L 89.097656 177.171875 Z M 156.578125 56.796875 " clip-rule="nonzero"/></clipPath><clipPath id="01ace06c3a"><path d="M 183 92 L 222 92 L 222 131 L 183 131 Z M 183 92 " clip-rule="nonzero"/></clipPath><clipPath id="0d2418f766"><path d="M 156.578125 56.796875 L 301.8125 138.210938 L 234.335938 258.589844 L 89.097656 177.171875 Z M 156.578125 56.796875 " clip-rule="nonzero"/></clipPath><clipPath id="87b97d28ec"><path d="M 156.578125 56.796875 L 301.8125 138.210938 L 234.335938 258.589844 L 89.097656 177.171875 Z M 156.578125 56.796875 " clip-rule="nonzero"/></clipPath><clipPath id="8ca7b01389"><path d="M 156.578125 56.796875 L 301.8125 138.210938 L 234.335938 258.589844 L 89.097656 177.171875 Z M 156.578125 56.796875 " clip-rule="nonzero"/></clipPath><clipPath id="f45e706508"><path d="M 140 130 L 235 130 L 235 217 L 140 217 Z M 140 130 " clip-rule="nonzero"/></clipPath><clipPath id="3a4c98e80b"><path d="M 156.578125 56.796875 L 301.8125 138.210938 L 234.335938 258.589844 L 89.097656 177.171875 Z M 156.578125 56.796875 " clip-rule="nonzero"/></clipPath><clipPath id="35ab6763bf"><path d="M 156.578125 56.796875 L 301.8125 138.210938 L 234.335938 258.589844 L 89.097656 177.171875 Z M 156.578125 56.796875 " clip-rule="nonzero"/></clipPath><clipPath id="ee54ceea7f"><path d="M 156.578125 56.796875 L 301.8125 138.210938 L 234.335938 258.589844 L 89.097656 177.171875 Z M 156.578125 56.796875 " clip-rule="nonzero"/></clipPath><clipPath id="05d05e04a3"><path d="M 95 157 L 278 157 L 278 189 L 95 189 Z M 95 157 " clip-rule="nonzero"/></clipPath><clipPath id="f9ab7e83d5"><path d="M 156.578125 56.796875 L 301.8125 138.210938 L 234.335938 258.589844 L 89.097656 177.171875 Z M 156.578125 56.796875 " clip-rule="nonzero"/></clipPath><clipPath id="d57c716d80"><path d="M 156.578125 56.796875 L 301.8125 138.210938 L 234.335938 258.589844 L 89.097656 177.171875 Z M 156.578125 56.796875 " clip-rule="nonzero"/></clipPath><clipPath id="664df92634"><path d="M 156.578125 56.796875 L 301.8125 138.210938 L 234.335938 258.589844 L 89.097656 177.171875 Z M 156.578125 56.796875 " clip-rule="nonzero"/></clipPath></defs><rect x="-37.5" width="450" fill="#ffffff" y="-37.499999" height="449.999989" fill-opacity="1"/><rect x="-37.5" width="450" fill="#ffffff" y="-37.499999" height="449.999989" fill-opacity="1"/><rect x="-37.5" width="450" fill="#ffffff" y="-37.499999" height="449.999989" fill-opacity="1"/><g clip-path="url(#fe957041b8)"><g clip-path="url(#8ef4523e32)"><g clip-path="url(#d5a2b77af0)"><g clip-path="url(#12e2a5c01a)"><path fill="#ff513c" d="M 175.988281 137.628906 C 172.496094 136.921875 168.972656 136.464844 165.417969 136.257812 C 163.4375 136.140625 161.425781 136.101562 159.492188 136.5625 C 156.011719 137.386719 153.066406 139.761719 150.738281 142.480469 C 149.476562 143.96875 148.363281 145.5625 147.40625 147.265625 C 146.445312 148.964844 145.652344 150.738281 145.027344 152.589844 C 144.40625 154.4375 143.960938 156.332031 143.695312 158.265625 C 143.433594 160.199219 143.351562 162.140625 143.457031 164.089844 C 143.703125 167.304688 144.285156 170.457031 145.203125 173.546875 C 146.753906 179.121094 148.824219 184.492188 151.421875 189.65625 C 154.015625 194.824219 157.085938 199.691406 160.628906 204.257812 C 164.378906 209.074219 169.59375 213.894531 175.664062 213.210938 C 180.117188 212.707031 184.25 209.238281 188.621094 210.265625 C 191.128906 210.855469 193.085938 212.847656 195.523438 213.695312 C 198.375 214.691406 201.605469 214 204.25 212.527344 C 206.894531 211.058594 209.070312 208.886719 211.207031 206.742188 C 215.378906 202.550781 219.597656 198.308594 222.621094 193.226562 C 226.328125 186.992188 228.058594 179.804688 229.566406 172.710938 C 230.789062 166.96875 231.90625 161.125 231.484375 155.273438 C 231.066406 149.421875 228.914062 143.484375 224.535156 139.589844 C 222.535156 137.820312 220.179688 136.542969 217.800781 135.359375 C 214.824219 133.882812 211.675781 132.507812 208.347656 132.4375 C 201.84375 132.296875 196.285156 137.070312 189.9375 138.53125 C 184.570312 139.765625 178.992188 138.570312 173.625 137.378906 " fill-opacity="1" fill-rule="nonzero"/></g></g></g></g><g clip-path="url(#266427418d)"><g clip-path="url(#4c97534ad5)"><g clip-path="url(#5b6080eed2)"><g clip-path="url(#9992deb04e)"><path fill="#3bbc50" d="M 186.578125 126.425781 C 189.710938 111.796875 201.082031 99.21875 215.304688 94.628906 C 216.082031 94.378906 217.078125 94.210938 217.585938 94.847656 C 217.96875 95.324219 217.859375 96.015625 217.71875 96.609375 C 217.054688 99.394531 216.132812 102.089844 214.945312 104.699219 C 213.757812 107.304688 212.335938 109.773438 210.671875 112.101562 C 209.003906 114.433594 207.132812 116.582031 205.050781 118.550781 C 202.972656 120.515625 200.722656 122.265625 198.300781 123.796875 C 194.921875 125.914062 191.082031 127.597656 187.101562 127.394531 " fill-opacity="1" fill-rule="nonzero"/></g></g></g></g><g clip-path="url(#6a7c59667d)"><g clip-path="url(#df13896c2c)"><g clip-path="url(#59380b1eda)"><g clip-path="url(#296b6d8ef4)"><path fill="#3bbc50" d="M 175.886719 127.800781 C 175.925781 126.796875 175.859375 125.796875 175.6875 124.808594 C 175.515625 123.816406 175.242188 122.855469 174.867188 121.925781 C 174.488281 120.992188 174.019531 120.113281 173.453125 119.28125 C 172.890625 118.449219 172.242188 117.6875 171.515625 116.996094 C 170.34375 115.957031 169.097656 115.023438 167.765625 114.199219 L 163.492188 111.363281 C 161.816406 110.25 160.082031 109.117188 158.109375 108.757812 C 157.308594 108.574219 156.523438 108.636719 155.761719 108.941406 C 155.25 109.203125 154.835938 109.574219 154.515625 110.050781 C 154.195312 110.527344 154.007812 111.050781 153.957031 111.621094 C 153.867188 112.773438 154.078125 113.863281 154.597656 114.894531 C 155.6875 117.289062 157.589844 119.199219 159.492188 121.015625 C 161.832031 123.226562 164.265625 125.402344 167.132812 126.871094 C 169.996094 128.339844 173.390625 129.054688 176.492188 128.195312 " fill-opacity="1" fill-rule="nonzero"/></g></g></g></g><g clip-path="url(#609ae704e1)"><g clip-path="url(#59f840ca3b)"><g clip-path="url(#2d3dc7e3a4)"><g clip-path="url(#7d6be25015)"><path fill="#38a545" d="M 218.054688 95.378906 C 216.492188 96.5 215.851562 98.464844 215.011719 100.199219 C 214.167969 101.933594 212.738281 103.707031 210.8125 103.683594 C 210.972656 104.5625 210.894531 105.421875 210.585938 106.257812 C 210.277344 107.097656 209.777344 107.800781 209.085938 108.367188 C 208.351562 108.957031 207.414062 109.347656 206.953125 110.167969 C 206.664062 110.648438 206.570312 111.222656 206.363281 111.742188 C 205.207031 114.632812 201.109375 115.035156 199.21875 117.507812 C 198.753906 118.113281 198.441406 118.820312 197.949219 119.417969 C 197.460938 120.019531 196.730469 120.476562 195.984375 120.339844 C 195.640625 120.28125 195.328125 120.089844 194.980469 120.035156 C 193.628906 119.820312 192.875 121.507812 191.816406 122.382812 C 191.039062 123.019531 189.992188 123.234375 189.199219 123.863281 C 187.945312 124.847656 187.488281 126.710938 186.042969 127.378906 C 192.21875 127.980469 198.054688 124.640625 203.195312 121.160156 C 204.210938 120.476562 205.21875 119.78125 206.183594 119.03125 C 207.882812 117.691406 209.429688 116.191406 210.824219 114.539062 C 212.21875 112.882812 213.433594 111.101562 214.464844 109.199219 C 215.496094 107.296875 216.328125 105.3125 216.953125 103.238281 C 217.582031 101.167969 217.996094 99.054688 218.191406 96.898438 " fill-opacity="1" fill-rule="nonzero"/></g></g></g></g><g clip-path="url(#10953d9d02)"><g clip-path="url(#59b0e290c9)"><g clip-path="url(#0c57ed6c24)"><g clip-path="url(#5a576cebf4)"><path fill="#38a545" d="M 154.492188 109.902344 C 155.371094 111.40625 156.585938 112.554688 158.136719 113.347656 C 158.472656 113.476562 158.753906 113.683594 158.976562 113.96875 C 159.214844 114.355469 159.121094 114.855469 159.1875 115.308594 C 159.300781 116.03125 159.832031 116.601562 160.34375 117.125 L 163.253906 120.117188 C 163.507812 120.414062 163.8125 120.648438 164.164062 120.820312 C 165.226562 121.230469 166.828125 120.398438 167.367188 121.402344 C 167.546875 121.746094 167.488281 122.167969 167.605469 122.539062 C 167.804688 123.144531 168.433594 123.476562 169.007812 123.75 L 175.019531 126.609375 C 175.554688 126.867188 176.140625 127.175781 176.328125 127.738281 L 169.007812 127.1875 C 167.539062 127.082031 166.042969 126.964844 164.664062 126.449219 C 162.324219 125.582031 160.539062 123.664062 159.070312 121.648438 C 156.917969 118.683594 155.296875 115.453125 154.207031 111.957031 C 153.90625 111.003906 153.683594 109.867188 154.316406 109.089844 " fill-opacity="1" fill-rule="nonzero"/></g></g></g></g><g clip-path="url(#c660b715c0)"><g clip-path="url(#580d8cce28)"><g clip-path="url(#63b0304158)"><g clip-path="url(#fefd1932a9)"><path fill="#ea2b1c" d="M 215.671875 176.1875 C 215.695312 175.988281 215.679688 175.792969 215.625 175.601562 C 215.574219 175.40625 215.492188 175.230469 215.375 175.070312 C 215.257812 174.90625 215.117188 174.769531 214.953125 174.660156 C 214.785156 174.550781 214.605469 174.472656 214.414062 174.429688 C 214.328125 174.410156 214.242188 174.414062 214.15625 174.4375 C 214.097656 174.332031 214.011719 174.257812 213.894531 174.214844 C 213.78125 174.175781 213.667969 174.175781 213.554688 174.214844 C 211.78125 174.777344 212.15625 177.601562 214.058594 177.574219 C 214.253906 177.578125 214.441406 177.542969 214.625 177.476562 C 214.8125 177.410156 214.976562 177.3125 215.125 177.183594 C 215.273438 177.054688 215.394531 176.90625 215.492188 176.734375 C 215.585938 176.5625 215.644531 176.378906 215.671875 176.1875 Z M 215.671875 176.1875 " fill-opacity="1" fill-rule="nonzero"/></g></g></g></g><g clip-path="url(#6b2c3f2ef2)"><g clip-path="url(#a53120a0b4)"><g clip-path="url(#1e1aae7e70)"><g clip-path="url(#f9b08b281d)"><path fill="#ea2b1c" d="M 231.117188 159.859375 C 231.238281 154.613281 230.835938 149.101562 228.0625 144.65625 C 227.101562 143.164062 225.992188 141.789062 224.730469 140.539062 C 219.957031 135.632812 213.597656 131.464844 206.769531 132.054688 L 206.589844 132.113281 C 203.929688 131.949219 201.09375 132.121094 199.359375 134.054688 C 199.523438 134.117188 199.6875 134.171875 199.859375 134.222656 L 199.832031 134.230469 L 199.859375 134.222656 C 202.394531 134.988281 205.222656 134.605469 207.742188 135.507812 C 209.503906 136.148438 210.976562 137.382812 212.382812 138.617188 C 214.949219 140.886719 217.453125 143.277344 219.425781 146.074219 C 219.996094 146.886719 220.539062 147.804688 220.496094 148.792969 C 220.472656 149.28125 220.308594 149.75 220.304688 150.230469 C 220.296875 151.136719 220.84375 151.941406 221.222656 152.757812 C 221.664062 153.71875 221.902344 154.730469 221.9375 155.792969 C 221.972656 156.851562 221.804688 157.878906 221.433594 158.871094 C 220.878906 159.160156 220.386719 159.527344 219.953125 159.976562 C 219.324219 160.628906 218.871094 161.386719 218.589844 162.25 C 218.3125 163.113281 218.234375 163.996094 218.359375 164.890625 C 218.535156 165.992188 219.023438 166.929688 219.824219 167.703125 C 220.113281 168.175781 220.511719 168.589844 220.707031 169.113281 C 220.996094 169.875 220.808594 170.722656 220.617188 171.519531 C 219.949219 174.277344 219.285156 177.035156 218.621094 179.792969 C 218.40625 180.832031 218.089844 181.839844 217.671875 182.816406 C 216.132812 186.148438 212.554688 188.054688 210.511719 191.101562 C 208.902344 193.496094 208.324219 196.472656 206.683594 198.847656 C 205.796875 200.136719 204.621094 201.199219 203.644531 202.421875 C 201.699219 204.824219 200.292969 207.964844 197.4375 209.132812 C 196.808594 209.390625 196.046875 209.621094 195.808594 210.257812 C 195.695312 210.589844 195.738281 210.898438 195.933594 211.183594 C 194.296875 211.765625 192.65625 211.769531 191.015625 211.199219 C 192.085938 213.675781 194.902344 215.0625 197.605469 215.125 C 200.308594 215.191406 202.917969 214.171875 205.347656 212.988281 C 207.6875 211.894531 209.863281 210.535156 211.875 208.914062 C 213.746094 207.296875 215.414062 205.496094 216.878906 203.503906 C 226.296875 191.117188 230.757812 175.402344 231.117188 159.859375 Z M 221.769531 168.75 C 221.925781 168.78125 222.085938 168.804688 222.25 168.816406 C 222.21875 168.984375 222.1875 169.15625 222.160156 169.328125 Z M 221.769531 168.75 " fill-opacity="1" fill-rule="nonzero"/></g></g></g></g><g clip-path="url(#7a5211707f)"><g clip-path="url(#9390cb1b91)"><g clip-path="url(#a370bc3e74)"><g clip-path="url(#f1201bc1ef)"><path fill="#ea2b1c" d="M 211.800781 147.15625 C 211.445312 145.941406 210.261719 143.945312 208.777344 145.207031 C 208.171875 145.726562 208.066406 146.539062 208.183594 147.28125 C 208.359375 148.402344 208.722656 149.433594 208.789062 150.582031 C 208.792969 150.839844 208.917969 151.007812 209.164062 151.082031 C 209.191406 151.300781 209.273438 151.5 209.410156 151.671875 C 209.636719 151.929688 209.914062 152.097656 210.246094 152.179688 C 210.578125 152.257812 210.902344 152.234375 211.222656 152.105469 C 213.226562 151.285156 212.230469 148.585938 211.800781 147.15625 Z M 211.800781 147.15625 " fill-opacity="1" fill-rule="nonzero"/></g></g></g></g><g clip-path="url(#2893c45b36)"><g clip-path="url(#547357a291)"><g clip-path="url(#97aefd9c57)"><g clip-path="url(#8d1bb798fe)"><path fill="#ea2b1c" d="M 210.09375 140.140625 C 209.933594 140.058594 209.765625 140.050781 209.597656 140.121094 C 209.46875 140.058594 209.335938 140.046875 209.199219 140.082031 C 208.558594 140.238281 208.558594 141.109375 209.070312 141.414062 C 209.582031 141.722656 210.050781 141.328125 210.3125 140.910156 C 210.382812 140.773438 210.398438 140.632812 210.359375 140.480469 C 210.316406 140.332031 210.230469 140.21875 210.09375 140.140625 Z M 209.269531 140.429688 C 209.265625 140.441406 209.261719 140.449219 209.253906 140.460938 C 209.257812 140.453125 209.257812 140.445312 209.265625 140.441406 Z M 209.269531 140.429688 " fill-opacity="1" fill-rule="nonzero"/></g></g></g></g><g clip-path="url(#6dd88096ad)"><g clip-path="url(#79943554d7)"><g clip-path="url(#8d92cb8e15)"><g clip-path="url(#cf769f7c7e)"><path fill="#ea2b1c" d="M 203.367188 197.3125 C 203.546875 196.835938 203.042969 196.558594 202.65625 196.683594 C 202.527344 196.632812 202.398438 196.625 202.265625 196.667969 C 202.136719 196.710938 202.03125 196.789062 201.957031 196.90625 C 201.164062 198.101562 200.371094 199.296875 199.574219 200.492188 C 199.273438 200.945312 199.902344 201.582031 200.351562 201.253906 C 201.75 200.242188 202.757812 198.929688 203.367188 197.3125 Z M 203.367188 197.3125 " fill-opacity="1" fill-rule="nonzero"/></g></g></g></g><g clip-path="url(#d2caa8e423)"><g clip-path="url(#f5f53d7cb3)"><g clip-path="url(#4ebe7a94b1)"><g clip-path="url(#9b8dfc0416)"><path fill="#ea2b1c" d="M 203.8125 161.609375 C 204.105469 161.269531 203.933594 160.597656 203.402344 160.648438 C 202.429688 160.742188 201.597656 159.597656 200.585938 160.265625 C 200.394531 160.394531 200.253906 160.5625 200.164062 160.773438 C 200.070312 160.984375 200.042969 161.203125 200.078125 161.433594 C 199.664062 162.007812 199.730469 162.71875 200.03125 163.453125 C 200.285156 164.070312 200.214844 164.492188 200.332031 165.121094 C 200.398438 165.515625 200.621094 165.789062 200.996094 165.9375 C 201.769531 166.28125 203.015625 165.765625 203.464844 165.070312 C 204.191406 163.910156 202.804688 162.78125 203.8125 161.609375 Z M 203.8125 161.609375 " fill-opacity="1" fill-rule="nonzero"/></g></g></g></g><g clip-path="url(#47c1c70e88)"><g clip-path="url(#6c05673d3f)"><g clip-path="url(#485a0b90ce)"><g clip-path="url(#81fab08a2e)"><path fill="#ea2b1c" d="M 219.761719 155.148438 C 219.925781 154.585938 219.652344 154.046875 219.34375 153.585938 C 219.253906 153.449219 219.128906 153.367188 218.964844 153.339844 C 218.753906 153.167969 218.527344 153.15625 218.292969 153.296875 C 218.058594 153.441406 217.96875 153.648438 218.027344 153.917969 C 218.027344 153.953125 218.023438 153.988281 218.011719 154.027344 C 217.988281 154.109375 217.960938 154.191406 217.929688 154.273438 C 217.859375 154.441406 217.804688 154.613281 217.761719 154.789062 C 217.699219 155.050781 217.738281 155.300781 217.882812 155.53125 C 218.027344 155.757812 218.230469 155.90625 218.492188 155.964844 C 218.777344 156.007812 219.039062 155.949219 219.28125 155.792969 C 219.519531 155.640625 219.683594 155.425781 219.761719 155.148438 Z M 219.761719 155.148438 " fill-opacity="1" fill-rule="nonzero"/></g></g></g></g><g clip-path="url(#61fa431beb)"><g clip-path="url(#a596a06c7e)"><g clip-path="url(#a8f69c9962)"><g clip-path="url(#7f71455007)"><path fill="#ea2b1c" d="M 203.113281 137.914062 C 201.179688 138.238281 199.582031 137.101562 197.691406 137.671875 C 196.046875 138.164062 194.675781 139.351562 192.894531 139.375 C 192.167969 139.382812 192.1875 140.511719 192.914062 140.511719 L 193.058594 140.503906 C 193.203125 140.714844 193.398438 140.796875 193.648438 140.753906 C 194.765625 140.582031 195.882812 140.398438 197.003906 140.230469 C 198.296875 140.035156 199.253906 140.160156 200.535156 140.238281 C 201.136719 140.292969 201.71875 140.195312 202.273438 139.949219 C 202.832031 139.703125 203.292969 139.339844 203.664062 138.855469 C 203.855469 138.648438 203.882812 138.421875 203.738281 138.179688 C 203.597656 137.933594 203.386719 137.84375 203.113281 137.914062 Z M 203.113281 137.914062 " fill-opacity="1" fill-rule="nonzero"/></g></g></g></g><g clip-path="url(#5f0ddd446c)"><g clip-path="url(#551d6aea54)"><g clip-path="url(#dccb8fd9b0)"><g clip-path="url(#c89ef8b430)"><path fill="#ea2b1c" d="M 190.019531 175.082031 C 189.710938 173.296875 188.117188 172.25 186.445312 171.917969 C 186.289062 171.882812 186.144531 171.914062 186.011719 172.003906 C 185.882812 172.09375 185.800781 172.21875 185.777344 172.378906 C 185.6875 172.503906 185.667969 172.640625 185.710938 172.785156 C 185.757812 172.933594 185.851562 173.035156 185.996094 173.089844 C 186.230469 173.179688 186.453125 173.300781 186.660156 173.449219 C 186.863281 173.597656 187.050781 173.769531 187.210938 173.960938 C 187.375 174.15625 187.507812 174.371094 187.617188 174.601562 C 187.726562 174.828125 187.804688 175.070312 187.851562 175.320312 C 187.898438 175.566406 187.914062 175.820312 187.894531 176.074219 C 187.878906 176.328125 187.832031 176.574219 187.75 176.816406 C 187.671875 177.058594 187.5625 177.285156 187.425781 177.5 C 187.289062 177.710938 187.125 177.90625 186.9375 178.078125 C 186.855469 178.179688 186.8125 178.296875 186.808594 178.429688 C 186.808594 178.5625 186.847656 178.679688 186.925781 178.785156 C 187.007812 178.890625 187.113281 178.960938 187.242188 178.992188 C 187.371094 179.023438 187.496094 179.011719 187.613281 178.957031 C 189.058594 178.078125 190.339844 176.925781 190.019531 175.082031 Z M 190.019531 175.082031 " fill-opacity="1" fill-rule="nonzero"/></g></g></g></g><g clip-path="url(#3ff0055b92)"><g clip-path="url(#5614f77e00)"><g clip-path="url(#c68b55ac5b)"><g clip-path="url(#d6540a00bc)"><path fill="#ea2b1c" d="M 199.699219 179.417969 C 199.757812 179.144531 199.761719 178.867188 199.714844 178.589844 C 199.671875 178.441406 199.582031 178.328125 199.449219 178.253906 C 199.3125 178.179688 199.171875 178.160156 199.019531 178.203125 C 198.765625 178.269531 198.632812 178.4375 198.621094 178.699219 C 198.492188 178.847656 198.464844 179.015625 198.539062 179.199219 C 198.554688 179.253906 198.5625 179.308594 198.5625 179.367188 C 198.449219 179.617188 198.261719 179.785156 198.003906 179.875 C 197.417969 180.0625 197.503906 181.019531 198.167969 180.980469 C 198.367188 180.964844 198.558594 180.914062 198.742188 180.832031 C 198.925781 180.746094 199.085938 180.632812 199.230469 180.488281 C 199.371094 180.34375 199.480469 180.179688 199.5625 179.996094 C 199.644531 179.8125 199.691406 179.621094 199.699219 179.417969 Z M 199.699219 179.417969 " fill-opacity="1" fill-rule="nonzero"/></g></g></g></g><g clip-path="url(#b1b5bd7daf)"><g clip-path="url(#d9505aac92)"><g clip-path="url(#beb5ee9e63)"><g clip-path="url(#92fa55c2db)"><path fill="#ea2b1c" d="M 191.351562 149.714844 C 191.070312 148.214844 189.175781 147.515625 187.75 147.300781 C 187.644531 147.265625 187.535156 147.230469 187.429688 147.207031 C 187.300781 147.175781 187.179688 147.191406 187.066406 147.246094 C 186.503906 147.355469 186.574219 148.316406 187.238281 148.367188 L 187.398438 148.382812 C 188.609375 148.890625 189.171875 150.992188 188.03125 151.816406 C 187.488281 152.207031 186.722656 151.886719 186.394531 152.667969 C 185.71875 154.257812 187.859375 154.617188 188.851562 154.046875 C 190.066406 153.34375 191.621094 151.175781 191.351562 149.714844 Z M 191.351562 149.714844 " fill-opacity="1" fill-rule="nonzero"/></g></g></g></g><g clip-path="url(#d330644671)"><g clip-path="url(#3a985d2b39)"><g clip-path="url(#d433c8dfaa)"><g clip-path="url(#7fa632adf0)"><path fill="#ea2b1c" d="M 194.875 197.898438 C 194.847656 197.945312 194.824219 197.988281 194.800781 198.03125 C 194.769531 198.050781 194.742188 198.074219 194.714844 198.097656 C 194.429688 198.375 194.152344 198.65625 193.871094 198.933594 C 193.417969 199.375 194.011719 200.167969 194.554688 199.816406 C 195.101562 199.46875 195.539062 199.015625 195.867188 198.457031 C 196.226562 197.824219 195.242188 197.273438 194.875 197.898438 Z M 194.875 197.898438 " fill-opacity="1" fill-rule="nonzero"/></g></g></g></g><g clip-path="url(#6d769faba2)"><g clip-path="url(#81a70e9abb)"><g clip-path="url(#c04769c104)"><g clip-path="url(#fda9f8d175)"><path fill="#ffbdb8" d="M 161.054688 169.039062 C 161.121094 168.410156 160.652344 167.875 160.414062 167.335938 C 160.144531 166.710938 160.355469 165.773438 159.789062 165.277344 C 159.65625 165.140625 159.492188 165.066406 159.300781 165.058594 C 159.109375 165.050781 158.941406 165.109375 158.796875 165.234375 C 158.453125 165.554688 158.488281 166.113281 158.582031 166.5625 C 158.261719 166.886719 158.175781 167.265625 158.320312 167.699219 C 158.398438 167.960938 158.527344 168.199219 158.699219 168.410156 C 158.988281 168.804688 159.242188 169.214844 159.519531 169.617188 C 160.066406 170.417969 160.96875 169.867188 161.054688 169.039062 Z M 161.054688 169.039062 " fill-opacity="1" fill-rule="nonzero"/></g></g></g></g><g clip-path="url(#93f2cfe13f)"><g clip-path="url(#67f5a6cecd)"><g clip-path="url(#437f64068f)"><g clip-path="url(#38318a17eb)"><path fill="#ffbdb8" d="M 171.585938 137.570312 L 173.816406 137.644531 C 173.078125 137.539062 172.332031 137.515625 171.585938 137.570312 Z M 171.585938 137.570312 " fill-opacity="1" fill-rule="nonzero"/></g></g></g></g><g clip-path="url(#f5c2f22b09)"><g clip-path="url(#c3aa67df47)"><g clip-path="url(#1b94a66984)"><g clip-path="url(#e97c955d0e)"><path fill="#ffbdb8" d="M 184.0625 210.460938 C 184.40625 210.164062 184.742188 209.855469 185.0625 209.519531 C 184.480469 209.621094 183.90625 209.753906 183.339844 209.921875 L 177.1875 209.472656 C 175.648438 209.359375 174.039062 209.207031 172.75 208.355469 C 171.796875 207.722656 171.125 206.75 170.476562 205.800781 L 166.164062 199.480469 C 165.667969 198.796875 165.234375 198.074219 164.859375 197.316406 C 164.507812 196.535156 164.292969 195.699219 163.96875 194.898438 C 162.949219 192.316406 160.953125 190.273438 159.378906 187.980469 C 157.808594 185.683594 156.664062 182.78125 157.625 180.175781 C 157.871094 179.65625 158.050781 179.117188 158.160156 178.554688 C 158.285156 177.238281 157.203125 176.171875 156.414062 175.121094 C 153.390625 171.089844 154.132812 165.480469 155.015625 160.515625 L 155.128906 159.867188 C 155.167969 159.800781 155.203125 159.738281 155.21875 159.664062 C 155.289062 159.507812 155.355469 159.347656 155.425781 159.191406 C 155.996094 159.039062 156.394531 158.691406 156.621094 158.144531 C 156.824219 157.597656 156.746094 156.980469 156.945312 156.453125 C 157.570312 154.828125 160.222656 154.832031 160.875 153.21875 C 161.332031 152.085938 160.519531 150.769531 160.894531 149.59375 C 161.011719 149.242188 161.230469 148.910156 161.199219 148.542969 C 161.183594 148.421875 161.152344 148.308594 161.101562 148.203125 C 161.296875 147.5625 161.222656 146.953125 160.875 146.378906 C 160.6875 146.167969 160.539062 145.929688 160.429688 145.664062 C 160.421875 145.625 160.417969 145.585938 160.414062 145.546875 L 163.75 142.003906 C 164.023438 141.910156 164.300781 141.820312 164.5625 141.710938 C 167.097656 140.628906 168.957031 137.488281 171.675781 137.933594 L 170.6875 137.695312 C 170.984375 137.648438 171.28125 137.613281 171.582031 137.589844 L 171.519531 137.585938 C 166.136719 134.351562 158.824219 133.980469 153.710938 137.644531 C 151.382812 139.316406 149.628906 141.6875 148.261719 144.207031 C 143.410156 153.144531 143.199219 164.03125 145.664062 173.890625 C 148.128906 183.746094 153.050781 192.785156 158.125 201.582031 C 160.238281 205.242188 162.488281 209 165.953125 211.414062 C 169.128906 213.628906 173.183594 214.34375 176.984375 213.695312 C 179.71875 213.621094 182.425781 212.5625 184.0625 210.460938 Z M 184.0625 210.460938 " fill-opacity="1" fill-rule="nonzero"/></g></g></g></g><g clip-path="url(#d873bfff60)"><g clip-path="url(#1760f415e3)"><g clip-path="url(#6269b5ed1d)"><g clip-path="url(#3825ad7484)"><path fill="#ffbdb8" d="M 179.554688 143.777344 C 179.863281 143.101562 179.605469 142.761719 178.988281 142.527344 C 177.953125 142.136719 176.699219 142.941406 175.617188 142.644531 C 174.800781 142.417969 174.21875 141.582031 173.429688 141.265625 C 172.207031 140.773438 170.941406 141.125 169.78125 141.644531 C 169.234375 141.75 168.707031 141.921875 168.199219 142.15625 C 167.589844 142.445312 166.230469 143.476562 166.703125 144.351562 C 167.097656 145.085938 168.238281 144.671875 168.78125 144.472656 C 170.25 143.925781 171.089844 143.640625 172.679688 144.03125 C 173.683594 144.285156 174.628906 144.644531 175.664062 144.777344 C 176.765625 144.914062 178.957031 145.09375 179.554688 143.777344 Z M 169.058594 141.980469 L 169.015625 142.003906 C 168.871094 142.042969 168.726562 142.085938 168.585938 142.140625 C 168.738281 142.074219 168.898438 142.023438 169.058594 141.980469 Z M 169.058594 141.980469 " fill-opacity="1" fill-rule="nonzero"/></g></g></g></g><g clip-path="url(#be77198b37)"><g clip-path="url(#bb6ef98728)"><g clip-path="url(#b609b03432)"><g clip-path="url(#934a2f38b5)"><path fill="#381f1d" d="M 163.449219 127.097656 C 161.847656 126.199219 160.359375 125.132812 158.988281 123.910156 C 157.613281 122.683594 156.390625 121.320312 155.316406 119.828125 C 154.246094 118.332031 153.34375 116.738281 152.621094 115.046875 C 151.894531 113.355469 151.359375 111.605469 151.019531 109.792969 C 150.984375 109.605469 150.96875 109.414062 150.976562 109.21875 C 150.980469 109.027344 151.007812 108.835938 151.058594 108.648438 C 151.105469 108.464844 151.171875 108.285156 151.261719 108.109375 C 151.347656 107.9375 151.453125 107.777344 151.574219 107.628906 C 151.695312 107.480469 151.832031 107.34375 151.984375 107.222656 C 152.136719 107.105469 152.300781 107.003906 152.472656 106.917969 C 152.648438 106.835938 152.828125 106.769531 153.015625 106.726562 C 153.203125 106.679688 153.394531 106.65625 153.585938 106.652344 C 155.054688 106.636719 156.515625 106.746094 157.96875 106.984375 C 159.417969 107.222656 160.835938 107.582031 162.222656 108.070312 C 163.609375 108.554688 164.941406 109.160156 166.222656 109.878906 C 167.503906 110.597656 168.714844 111.421875 169.851562 112.351562 C 170.988281 113.285156 172.035156 114.308594 172.996094 115.421875 C 173.953125 116.535156 174.808594 117.726562 175.558594 118.988281 C 176.308594 120.253906 176.945312 121.574219 177.464844 122.949219 C 177.984375 124.324219 178.378906 125.734375 178.652344 127.179688 C 178.691406 127.371094 178.703125 127.5625 178.699219 127.757812 C 178.691406 127.949219 178.664062 128.140625 178.617188 128.328125 C 178.566406 128.515625 178.5 128.699219 178.414062 128.871094 C 178.324219 129.042969 178.21875 129.207031 178.097656 129.355469 C 177.972656 129.507812 177.835938 129.640625 177.683594 129.761719 C 177.53125 129.882812 177.367188 129.984375 177.195312 130.066406 C 177.019531 130.152344 176.835938 130.21875 176.648438 130.261719 C 176.460938 130.304688 176.269531 130.328125 176.074219 130.332031 C 171.578125 130.378906 167.371094 129.300781 163.449219 127.097656 Z M 154.527344 110.039062 C 154.800781 111.207031 155.164062 112.34375 155.625 113.449219 C 156.082031 114.554688 156.625 115.617188 157.257812 116.632812 C 157.890625 117.648438 158.601562 118.609375 159.394531 119.507812 C 160.183594 120.40625 161.039062 121.234375 161.964844 121.996094 C 162.890625 122.753906 163.875 123.429688 164.910156 124.027344 C 165.949219 124.625 167.027344 125.132812 168.148438 125.550781 C 169.269531 125.96875 170.417969 126.292969 171.59375 126.523438 C 172.765625 126.753906 173.953125 126.886719 175.148438 126.925781 C 174.878906 125.757812 174.511719 124.621094 174.054688 123.515625 C 173.597656 122.40625 173.050781 121.347656 172.417969 120.328125 C 171.785156 119.3125 171.074219 118.355469 170.285156 117.453125 C 169.496094 116.554688 168.636719 115.726562 167.710938 114.96875 C 166.785156 114.210938 165.804688 113.53125 164.765625 112.9375 C 163.730469 112.339844 162.648438 111.832031 161.53125 111.410156 C 160.410156 110.992188 159.261719 110.667969 158.085938 110.4375 C 156.910156 110.207031 155.726562 110.074219 154.527344 110.039062 Z M 175.335938 127.804688 Z M 175.335938 127.804688 " fill-opacity="1" fill-rule="nonzero"/></g></g></g></g><g clip-path="url(#01ace06c3a)"><g clip-path="url(#0d2418f766)"><g clip-path="url(#87b97d28ec)"><g clip-path="url(#8ca7b01389)"><path fill="#381f1d" d="M 184.949219 129.757812 C 184.738281 129.636719 184.546875 129.492188 184.375 129.320312 C 184.078125 129.03125 183.863281 128.6875 183.730469 128.296875 C 183.59375 127.902344 183.554688 127.5 183.609375 127.085938 C 183.757812 125.996094 183.945312 124.914062 184.179688 123.835938 C 184.414062 122.761719 184.6875 121.695312 185.007812 120.644531 C 185.328125 119.589844 185.691406 118.550781 186.09375 117.527344 C 186.496094 116.503906 186.941406 115.496094 187.425781 114.507812 C 187.914062 113.519531 188.4375 112.554688 189 111.609375 C 189.566406 110.664062 190.167969 109.742188 190.804688 108.847656 C 191.445312 107.949219 192.117188 107.078125 192.824219 106.238281 C 193.535156 105.394531 194.277344 104.582031 195.050781 103.800781 C 195.828125 103.019531 196.632812 102.269531 197.464844 101.554688 C 198.300781 100.835938 199.164062 100.15625 200.054688 99.507812 C 200.945312 98.863281 201.863281 98.253906 202.800781 97.683594 C 203.742188 97.109375 204.703125 96.578125 205.6875 96.082031 C 206.667969 95.589844 207.671875 95.136719 208.691406 94.722656 C 209.710938 94.308594 210.742188 93.9375 211.792969 93.609375 C 212.84375 93.28125 213.90625 92.996094 214.976562 92.753906 C 216.050781 92.511719 217.128906 92.3125 218.21875 92.160156 C 218.421875 92.128906 218.625 92.125 218.828125 92.144531 C 219.03125 92.160156 219.230469 92.203125 219.425781 92.265625 C 219.621094 92.332031 219.804688 92.417969 219.980469 92.523438 C 220.152344 92.628906 220.3125 92.757812 220.457031 92.898438 C 220.601562 93.042969 220.730469 93.203125 220.839844 93.375 C 220.949219 93.550781 221.035156 93.734375 221.101562 93.925781 C 221.167969 94.121094 221.210938 94.320312 221.230469 94.523438 C 221.25 94.726562 221.246094 94.929688 221.21875 95.132812 C 221.074219 96.226562 220.886719 97.308594 220.652344 98.382812 C 220.417969 99.460938 220.140625 100.523438 219.824219 101.578125 C 219.503906 102.628906 219.140625 103.667969 218.738281 104.695312 C 218.332031 105.71875 217.886719 106.722656 217.402344 107.710938 C 216.917969 108.699219 216.394531 109.667969 215.828125 110.613281 C 215.265625 111.558594 214.664062 112.476562 214.027344 113.375 C 213.386719 114.273438 212.714844 115.140625 212.003906 115.984375 C 211.296875 116.824219 210.554688 117.636719 209.78125 118.417969 C 209.003906 119.203125 208.199219 119.949219 207.363281 120.667969 C 206.527344 121.382812 205.664062 122.066406 204.773438 122.710938 C 203.882812 123.359375 202.96875 123.96875 202.03125 124.539062 C 201.089844 125.113281 200.128906 125.644531 199.144531 126.136719 C 198.164062 126.632812 197.160156 127.085938 196.140625 127.5 C 195.121094 127.910156 194.085938 128.28125 193.039062 128.609375 C 191.988281 128.9375 190.925781 129.222656 189.855469 129.46875 C 188.78125 129.710938 187.699219 129.90625 186.613281 130.0625 C 186.023438 130.148438 185.46875 130.046875 184.949219 129.757812 Z M 217.730469 95.65625 C 215.816406 95.976562 213.945312 96.445312 212.105469 97.0625 C 210.265625 97.675781 208.488281 98.429688 206.765625 99.324219 C 205.042969 100.21875 203.402344 101.238281 201.839844 102.386719 C 200.277344 103.539062 198.8125 104.800781 197.449219 106.179688 C 196.082031 107.558594 194.832031 109.035156 193.695312 110.605469 C 192.5625 112.179688 191.554688 113.832031 190.675781 115.5625 C 189.796875 117.292969 189.058594 119.078125 188.460938 120.925781 C 187.859375 122.769531 187.40625 124.652344 187.101562 126.566406 C 189.738281 126.125 192.300781 125.410156 194.78125 124.414062 C 197.265625 123.421875 199.617188 122.171875 201.828125 120.667969 C 204.042969 119.167969 206.074219 117.445312 207.914062 115.503906 C 209.757812 113.5625 211.371094 111.445312 212.757812 109.15625 C 215.304688 104.984375 216.960938 100.488281 217.722656 95.664062 Z M 217.730469 95.65625 " fill-opacity="1" fill-rule="nonzero"/></g></g></g></g><g clip-path="url(#f45e706508)"><g clip-path="url(#3a4c98e80b)"><g clip-path="url(#35ab6763bf)"><g clip-path="url(#ee54ceea7f)"><path fill="#381f1d" d="M 234.507812 164.539062 C 235.433594 155.007812 233.195312 145.03125 226.488281 137.90625 C 224.726562 136.035156 222.722656 134.46875 220.484375 133.207031 C 218.246094 131.945312 215.867188 131.046875 213.355469 130.507812 C 207.792969 129.359375 202.722656 130.582031 197.613281 132.824219 C 192.238281 135.183594 187.210938 137.117188 181.230469 136.855469 C 177.921875 136.710938 174.757812 135.773438 171.578125 134.933594 C 171.457031 134.886719 171.335938 134.855469 171.210938 134.835938 C 171.09375 134.804688 170.972656 134.785156 170.847656 134.777344 C 166.386719 134.0625 161.707031 133.398438 157.277344 134.664062 C 152.675781 135.96875 149.152344 139.449219 146.5 143.316406 C 140.828125 151.648438 139.835938 162.445312 141.730469 172.128906 C 143.714844 182.265625 148.695312 191.664062 154.058594 200.382812 C 159.019531 208.445312 166.777344 217.734375 177.417969 216.234375 C 179.539062 215.921875 181.367188 215.101562 183.164062 213.988281 C 185.207031 212.738281 186.976562 211.570312 189.363281 212.71875 C 191.519531 213.75 193.226562 215.433594 195.5625 216.148438 C 197.902344 216.867188 200.472656 216.734375 202.800781 216.082031 C 207.554688 214.738281 211.371094 211.140625 214.695312 207.660156 C 217.472656 204.734375 219.996094 201.605469 222.257812 198.265625 C 224.519531 194.921875 226.492188 191.421875 228.175781 187.753906 C 229.859375 184.089844 231.234375 180.308594 232.292969 176.417969 C 233.351562 172.523438 234.082031 168.570312 234.488281 164.558594 Z M 185.960938 208.917969 C 184.132812 209.300781 182.601562 210.386719 181.027344 211.328125 C 179.238281 212.453125 177.289062 213.003906 175.179688 212.980469 C 170.371094 212.910156 166.136719 210.085938 162.933594 206.714844 C 159.503906 203.109375 156.964844 198.738281 154.5 194.445312 C 152.097656 190.261719 149.839844 185.964844 148.066406 181.46875 C 144.269531 171.84375 142.648438 161.066406 146.289062 151.117188 C 148.046875 146.332031 151.285156 141.230469 155.925781 138.816406 C 160.367188 136.503906 165.683594 137.367188 170.398438 138.125 C 176.90625 139.832031 183.128906 141.011719 189.847656 139.398438 C 194.484375 138.285156 198.542969 135.722656 203.0625 134.300781 C 206.273438 133.296875 209.523438 133.148438 212.8125 133.855469 C 213.222656 134.101562 213.601562 134.382812 213.949219 134.703125 C 214.558594 135.265625 215.054688 135.945312 215.6875 136.480469 C 217.757812 138.222656 221.234375 138.464844 222.21875 140.984375 C 222.464844 141.613281 222.515625 142.332031 222.921875 142.878906 C 223.265625 143.328125 223.808594 143.578125 224.210938 143.976562 C 225.558594 145.285156 224.972656 147.558594 225.574219 149.339844 C 226.300781 151.496094 228.820312 153.128906 228.417969 155.367188 C 228.289062 156.070312 227.878906 156.6875 227.691406 157.375 C 227.597656 157.785156 227.542969 158.199219 227.53125 158.617188 L 227.207031 163.628906 C 226.753906 170.730469 226.253906 178.015625 223.304688 184.496094 C 222.953125 185.351562 222.476562 186.136719 221.882812 186.851562 C 221.460938 187.257812 221.066406 187.6875 220.699219 188.148438 C 219.671875 189.648438 220.148438 191.804688 219.175781 193.347656 C 218.289062 194.765625 216.484375 195.242188 215.144531 196.242188 C 213.972656 197.121094 213.171875 198.394531 212.347656 199.609375 C 209.695312 203.507812 206.585938 207 203.011719 210.078125 C 201.941406 211 200.683594 211.929688 199.277344 211.828125 C 198.683594 211.785156 198.101562 211.542969 197.507812 211.648438 C 197.050781 211.765625 196.613281 211.941406 196.203125 212.167969 C 195.933594 212.285156 195.660156 212.375 195.375 212.433594 C 192.269531 210.980469 189.804688 208.105469 185.957031 208.921875 Z M 185.960938 208.917969 " fill-opacity="1" fill-rule="nonzero"/></g></g></g></g><g clip-path="url(#05d05e04a3)"><g clip-path="url(#f9ab7e83d5)"><g clip-path="url(#d57c716d80)"><g clip-path="url(#664df92634)"><path fill="#381f1d" d="M 186.324219 188.835938 C 136.167969 188.457031 95.566406 180.777344 95.644531 171.652344 C 95.714844 165.371094 115.066406 160.027344 143.511719 157.457031 L 143.738281 163.640625 C 133.851562 165.757812 127.78125 168.65625 127.757812 171.886719 C 127.710938 178.636719 153.9375 184.292969 186.363281 184.527344 C 218.792969 184.765625 245.128906 179.484375 245.191406 172.742188 C 245.214844 169.886719 240.527344 167.226562 232.648438 165.085938 L 233.355469 158.480469 C 259.730469 161.5625 277.339844 166.957031 277.289062 172.964844 C 277.21875 182.097656 236.492188 189.203125 186.324219 188.835938 Z M 186.324219 188.835938 " fill-opacity="1" fill-rule="nonzero"/></g></g></g></g><g fill="#381f1d" fill-opacity="1"><g transform="translate(127.751525, 256.694191)"><g><path d="M 6.535156 -0.722656 C 11.890625 -0.722656 6.421875 -5.625 12.917969 -5.625 C 20.820312 -5.625 15.085938 -0.683594 19.605469 -0.683594 C 21.46875 -0.683594 24.695312 -0.683594 24.695312 -3.304688 C 24.695312 -7.027344 19.339844 -22.988281 17.023438 -25.835938 C 15.957031 -27.128906 15.046875 -27.320312 13.449219 -27.320312 C 12.425781 -27.320312 11.664062 -27.320312 10.789062 -26.710938 C 7.902344 -24.773438 2.242188 -7.371094 2.242188 -3.648438 C 2.242188 -0.570312 4.101562 -0.722656 6.535156 -0.722656 Z M 13.144531 -11.09375 C 12.273438 -11.09375 11.472656 -11.285156 11.472656 -12.308594 C 11.472656 -13.144531 12.613281 -18.921875 13.375 -18.921875 C 14.285156 -18.921875 15.273438 -13.222656 15.273438 -12.347656 C 15.273438 -11.550781 14.703125 -11.09375 13.945312 -11.09375 Z M 13.144531 -11.09375 "/></g></g></g><g fill="#381f1d" fill-opacity="1"><g transform="translate(152.674045, 256.694191)"><g><path d="M 2.546875 -11.929688 C 2.546875 -9.726562 2.660156 -2.015625 5.054688 -1.0625 C 5.964844 -0.683594 7.027344 -0.644531 8.015625 -0.644531 C 9.800781 -0.644531 10.21875 -1.519531 10.21875 -3.152344 C 10.21875 -4.101562 10.105469 -5.054688 10.105469 -6.003906 C 10.105469 -6.535156 10.144531 -8.207031 10.488281 -8.585938 C 11.207031 -9.308594 24.277344 -7.296875 24.277344 -17.894531 C 24.277344 -24.394531 18.238281 -27.621094 12.425781 -27.621094 C 10.601562 -27.621094 6.609375 -27.507812 5.054688 -26.75 C 2.621094 -25.53125 2.546875 -18.425781 2.546875 -16.035156 Z M 10.105469 -20.480469 C 10.144531 -21.351562 10.371094 -22.113281 11.4375 -22.113281 L 12.386719 -22.113281 C 14.550781 -22.113281 17.136719 -20.933594 17.136719 -18.464844 C 17.136719 -15.804688 15.234375 -13.90625 12.578125 -13.90625 C 10.753906 -13.90625 10.105469 -14.097656 10.105469 -16.070312 Z M 10.105469 -20.480469 "/></g></g></g><g fill="#381f1d" fill-opacity="1"><g transform="translate(175.69695, 256.694191)"><g><path d="M 2.546875 -11.929688 C 2.546875 -9.726562 2.660156 -2.015625 5.054688 -1.0625 C 5.964844 -0.683594 7.027344 -0.644531 8.015625 -0.644531 C 9.800781 -0.644531 10.21875 -1.519531 10.21875 -3.152344 C 10.21875 -4.101562 10.105469 -5.054688 10.105469 -6.003906 C 10.105469 -6.535156 10.144531 -8.207031 10.488281 -8.585938 C 11.207031 -9.308594 24.277344 -7.296875 24.277344 -17.894531 C 24.277344 -24.394531 18.238281 -27.621094 12.425781 -27.621094 C 10.601562 -27.621094 6.609375 -27.507812 5.054688 -26.75 C 2.621094 -25.53125 2.546875 -18.425781 2.546875 -16.035156 Z M 10.105469 -20.480469 C 10.144531 -21.351562 10.371094 -22.113281 11.4375 -22.113281 L 12.386719 -22.113281 C 14.550781 -22.113281 17.136719 -20.933594 17.136719 -18.464844 C 17.136719 -15.804688 15.234375 -13.90625 12.578125 -13.90625 C 10.753906 -13.90625 10.105469 -14.097656 10.105469 -16.070312 Z M 10.105469 -20.480469 "/></g></g></g><g fill="#381f1d" fill-opacity="1"><g transform="translate(198.719857, 256.694191)"><g><path d="M 10.488281 -14.132812 C 10.488281 -14.78125 10.5625 -15.425781 10.601562 -16.070312 C 10.675781 -17.441406 10.753906 -18.808594 10.753906 -20.175781 C 10.753906 -22.152344 10.636719 -27.128906 7.828125 -27.128906 C 6.117188 -27.128906 4.636719 -26.9375 3.722656 -25.304688 C 2.582031 -23.253906 2.546875 -15.730469 2.546875 -13.144531 C 2.546875 -11.132812 2.582031 -9.082031 2.734375 -7.066406 C 2.851562 -5.699219 3.152344 -4.332031 3.953125 -3.191406 C 6.191406 0.0742188 12.613281 -0.457031 16.109375 -0.457031 C 17.742188 -0.457031 19.679688 -0.796875 20.859375 -2.050781 C 21.542969 -2.773438 21.695312 -3.835938 21.695312 -4.824219 C 21.695312 -6.003906 21.085938 -6.609375 19.910156 -6.609375 C 18.199219 -6.609375 16.488281 -6.535156 14.742188 -6.535156 C 13.945312 -6.535156 13.109375 -6.609375 12.386719 -6.992188 C 10.371094 -8.054688 10.488281 -12.195312 10.488281 -14.132812 Z M 10.488281 -14.132812 "/></g></g></g><g fill="#381f1d" fill-opacity="1"><g transform="translate(220.413042, 256.694191)"><g><path d="M 7.410156 -27.089844 C 6.15625 -27.089844 4.292969 -26.902344 3.457031 -25.796875 C 2.203125 -24.125 2.128906 -16.984375 2.128906 -14.703125 C 2.128906 -13.296875 2.164062 -11.929688 2.164062 -10.523438 C 2.242188 -4.140625 7.21875 -0.0390625 13.414062 -0.0390625 C 17.78125 -0.0390625 21.921875 -2.203125 23.824219 -6.230469 C 24.46875 -7.597656 24.734375 -9.082031 24.734375 -10.5625 C 24.734375 -12.539062 24.773438 -14.515625 24.773438 -16.488281 C 24.773438 -18.464844 24.695312 -24.847656 23.101562 -26.140625 C 22.035156 -27.015625 20.707031 -27.015625 19.378906 -27.015625 C 16.605469 -27.015625 16.945312 -24.394531 16.945312 -22.417969 C 16.945312 -18.277344 17.058594 -14.171875 17.058594 -10.03125 C 17.058594 -7.371094 16.148438 -5.925781 13.335938 -5.925781 C 10.410156 -5.925781 9.992188 -8.132812 9.992188 -10.5625 C 9.992188 -13.414062 10.257812 -16.222656 10.257812 -19.074219 C 10.257812 -21.164062 10.21875 -23.289062 9.839844 -25.34375 C 9.726562 -25.914062 9.535156 -26.445312 9.042969 -26.75 C 8.585938 -27.015625 7.941406 -27.089844 7.410156 -27.089844 Z M 7.410156 -27.089844 "/></g></g></g></svg>