<?xml version="1.0" encoding="utf-8"?>
<!-- Generator: Adobe Illustrator 25.4.1, SVG Export Plug-In . SVG Version: 6.00 Build 0)  -->
<svg version="1.1" id="Layer_1" xmlns="http://www.w3.org/2000/svg" xmlns:xlink="http://www.w3.org/1999/xlink" x="0px" y="0px"
	 viewBox="0 0 15 88" style="enable-background:new 0 0 15 88;" xml:space="preserve">
<style type="text/css">
	.st0{fill:none;}
	.st1{fill:#86868B;}
</style>
<rect y="33.4" class="st0" width="15" height="21.8"/>
<path class="st1" d="M14,49.7l-3.5-3.5c1.9-2.3,1.6-5.7-0.8-7.6S4,37,2.1,39.3S0.5,45.1,2.8,47c2,1.6,4.9,1.6,6.9,0l3.5,3.5
	c0.2,0.2,0.6,0.2,0.8,0S14.2,49.9,14,49.7L14,49.7z M2,42.8c0-2.4,1.9-4.3,4.3-4.3s4.3,1.9,4.3,4.3c0,2.4-1.9,4.3-4.3,4.3
	S2,45.2,2,42.8z"/>
</svg>
